<svg width="80" height="63" viewBox="0 0 80 63" fill="none" xmlns="http://www.w3.org/2000/svg">
<path fill-rule="evenodd" clip-rule="evenodd" d="M69.8816 37.8724C75.602 36.9962 80 31.7161 80 25.3333C80 18.3377 74.717 12.6667 68.2 12.6667C67.3178 12.6667 66.4583 12.7706 65.6314 12.9676C65.0797 5.71583 58.8933 0 51.3429 0C45.0531 0 39.7099 3.9665 37.782 9.48317C36.7271 9.1987 35.6228 9.04762 34.4857 9.04762C27.0378 9.04762 21 15.5288 21 23.5238C21 31.5188 27.0378 38 34.4857 38H68.2H69.8857L69.8816 37.8724Z" fill="#BEBEBE" fill-opacity="0.5"/>
<path fill-rule="evenodd" clip-rule="evenodd" d="M14 48H54C62.8366 48 70 40.8366 70 32C70 23.1634 62.8366 16 54 16C52.6509 16 51.3407 16.167 50.0891 16.4814C47.8019 10.384 41.4625 6 34 6C25.0419 6 17.7021 12.3175 17.0475 20.3326C16.0664 20.1149 15.0466 20 14 20C6.26801 20 0 26.268 0 34C0 41.732 6.26801 48 14 48Z" fill="white"/>
<path fill-rule="evenodd" clip-rule="evenodd" d="M20 52C18.7641 53.4355 17 56.1703 17 57.75C17 59.3472 17.375 60.625 20 60.625V52ZM20 52C21.2359 53.4355 23 56.1703 23 57.75C23 59.3472 22.625 60.625 20 60.625V52Z" fill="white"/>
<path fill-rule="evenodd" clip-rule="evenodd" d="M33.2222 55C32.3067 56.2483 31 58.6263 31 60C31 61.3889 31.2778 62.5 33.2222 62.5V55ZM33.2222 55C34.1377 56.2483 35.4444 58.6263 35.4444 60C35.4444 61.3889 35.1667 62.5 33.2222 62.5V55Z" fill="white"/>
<path fill-rule="evenodd" clip-rule="evenodd" d="M45.2222 51C44.3067 52.2483 43 54.6263 43 56C43 57.3889 43.2778 58.5 45.2222 58.5V51ZM45.2222 51C46.1377 52.2483 47.4444 54.6263 47.4444 56C47.4444 57.3889 47.1667 58.5 45.2222 58.5V51Z" fill="white"/>
</svg>
